<svg width="32" height="32" viewBox="0 0 32 32" fill="none" xmlns="http://www.w3.org/2000/svg">
    <path d="M17.334 29.2666V26.5839C20.0237 26.2417 22.4822 24.8881 24.2097 22.7983C25.9373 20.7085 26.8043 18.0393 26.6345 15.3332C26.4647 12.6271 25.2709 10.0872 23.2957 8.22976C21.3204 6.37228 18.7121 5.33661 16.0007 5.33325C13.4024 5.33301 10.8934 6.28111 8.94469 7.99959C6.99594 9.71806 5.74143 12.0887 5.41665 14.6666H2.73265C3.40198 7.92925 9.08732 2.66658 16.0007 2.66658C23.3647 2.66658 29.334 8.63592 29.334 15.9999C29.334 22.9133 24.0713 28.5986 17.334 29.2666ZM7.05798 23.0573L16.0007 14.1146L17.886 15.9999L8.94332 24.9426L13.334 29.3333H2.66732V18.6666L7.05798 23.0573Z" fill="#888888"/>
</svg>
